<svg width="14" height="14" viewBox="0 0 14 14" fill="none" xmlns="http://www.w3.org/2000/svg">
<path d="M11.4456 5.1334C11.9761 4.21455 12.2413 3.75466 12.2017 3.37766C12.1671 3.04883 11.9945 2.75037 11.7271 2.55603C11.4205 2.33329 10.8903 2.33329 9.83002 2.33329L4.16998 2.33329C3.10969 2.33329 2.5796 2.33329 2.27303 2.55603C2.00553 2.75037 1.83287 3.04883 1.79831 3.37766C1.75868 3.75466 2.02378 4.21455 2.55428 5.1334L5.3833 10.0334C5.9138 10.9523 6.17917 11.4116 6.52547 11.5658C6.82753 11.7003 7.17266 11.7003 7.47472 11.5658C7.82088 11.4117 8.08608 10.9523 8.61615 10.0342L11.4456 5.1334Z" fill="#9FA1A8"/>
</svg>
